<svg xmlns="http://www.w3.org/2000/svg" viewBox="0 0 100 100" fill="none">
  <!-- Paddle -->
  <ellipse cx="45" cy="40" rx="28" ry="35" fill="#1a3a2f" stroke="#a3e635" stroke-width="3"/>
  <!-- Paddle holes pattern -->
  <circle cx="35" cy="28" r="3" fill="#a3e635" opacity="0.6"/>
  <circle cx="45" cy="28" r="3" fill="#a3e635" opacity="0.6"/>
  <circle cx="55" cy="28" r="3" fill="#a3e635" opacity="0.6"/>
  <circle cx="30" cy="38" r="3" fill="#a3e635" opacity="0.6"/>
  <circle cx="40" cy="38" r="3" fill="#a3e635" opacity="0.6"/>
  <circle cx="50" cy="38" r="3" fill="#a3e635" opacity="0.6"/>
  <circle cx="60" cy="38" r="3" fill="#a3e635" opacity="0.6"/>
  <circle cx="35" cy="48" r="3" fill="#a3e635" opacity="0.6"/>
  <circle cx="45" cy="48" r="3" fill="#a3e635" opacity="0.6"/>
  <circle cx="55" cy="48" r="3" fill="#a3e635" opacity="0.6"/>
  <circle cx="40" cy="58" r="3" fill="#a3e635" opacity="0.6"/>
  <circle cx="50" cy="58" r="3" fill="#a3e635" opacity="0.6"/>
  <!-- Paddle handle -->
  <rect x="39" y="72" width="12" height="22" rx="4" fill="#8B4513" stroke="#654321" stroke-width="2"/>
  <!-- Pickleball (yellow with holes) -->
  <circle cx="75" cy="25" r="18" fill="#fde047" stroke="#eab308" stroke-width="2"/>
  <circle cx="70" cy="20" r="2" fill="#eab308"/>
  <circle cx="80" cy="20" r="2" fill="#eab308"/>
  <circle cx="75" cy="28" r="2" fill="#eab308"/>
  <circle cx="68" cy="28" r="2" fill="#eab308"/>
  <circle cx="82" cy="28" r="2" fill="#eab308"/>
  <circle cx="72" cy="35" r="2" fill="#eab308"/>
  <circle cx="78" cy="35" r="2" fill="#eab308"/>
</svg>

