<?xml version="1.0" encoding="UTF-8"?><svg xmlns="http://www.w3.org/2000/svg" xmlns:xlink="http://www.w3.org/1999/xlink" viewBox="0 0 986.49 911.92"><defs><clipPath id="clippath"><path d="M347.47,178.81l9.86-27.23c1.07-2.96,2.79-4.44,5.75-4.44h66.97c7.4,0,11.05,2.34,12.66,5.92,1.18,2.63,1.3,6.22.02,9.77-1.29,3.55-4.06,7.1-7.09,9.77-4.36,3.84-9.65,6.22-17.05,6.22h-71.11ZM334.51,214.63h70.81c7.99,0,11.41,2.06,13.35,5.62,1.61,2.95,1.98,6.81.48,10.95-1.5,4.14-4.36,8-8.22,11.25-4.23,3.56-9.84,5.92-17.83,5.92h-66.67c-2.96,0-3.61-1.48-2.54-4.44l10.61-29.3ZM336.9,96.82c-8.88,0-14.82,4.15-17.82,12.43l-63.33,174.93c-3.11,8.58-.17,12.73,8.71,12.73h123.79c23.68,0,41.86-7.69,56.61-19.83,12.23-10.06,22.27-23.09,27.41-37.3,6.64-18.35,5.57-35.81-6.45-43.51,16.13-8.58,28.59-23.38,34.81-40.55,6.11-16.87,4.96-30.17-.63-39.96-7.09-12.41-21.26-18.94-42.28-18.94h-120.83Z" style="fill:none;"/></clipPath><linearGradient id="linear-gradient" x1="297.74" y1="117.96" x2="461.6" y2="275.72" gradientUnits="userSpaceOnUse"><stop offset="0" stop-color="#fdba00"/><stop offset="1" stop-color="#ea6f07"/></linearGradient><clipPath id="clippath-1"><path d="M342.34,176.96l9.86-27.23c1.8-4.98,5.46-8.04,10.88-8.04h66.97c7.21,0,14.45,2.03,17.64,9.15,1.94,4.33,1.76,9.45.17,13.85-1.65,4.55-4.99,8.82-8.61,12-5.94,5.23-12.74,7.58-20.66,7.58h-71.11c-1.83,0-3.41-.82-4.47-2.32-1.05-1.5-1.29-3.26-.66-4.99M334.51,209.17h70.81c7.38,0,14.35,1.53,18.14,8.46,2.62,4.78,2.65,10.37.82,15.43-1.93,5.34-5.52,9.93-9.83,13.56-6.13,5.16-13.42,7.2-21.34,7.2h-66.67c-7.04,0-9.94-5.46-7.67-11.75l10.61-29.3c.8-2.2,2.79-3.6,5.13-3.6ZM336.9,102.28c-6.54,0-10.46,2.68-12.69,8.83l-63.33,174.93c-.28.78-1.23,3.81-.78,4.62.59.66,3.58.79,4.36.79h123.79c20.09,0,37.61-5.81,53.14-18.59,11.13-9.16,20.81-21.31,25.75-34.94,3.9-10.78,7.45-29.56-4.26-37.06-1.68-1.07-2.59-2.82-2.51-4.81.08-1.99,1.13-3.66,2.89-4.59,14.95-7.96,26.49-21.71,32.24-37.59,4.07-11.24,5.97-24.53-.24-35.39-7.53-13.18-23.54-16.2-37.54-16.2h-120.83Z" style="clip-rule:evenodd; fill:none;"/></clipPath><linearGradient id="linear-gradient-2" x1="378.72" y1="102.25" x2="382.4" y2="291.42" xlink:href="#linear-gradient"/><clipPath id="clippath-2"><path d="M94.84,197.46l15.75-43.51c1.07-2.96,2.98-4.14,5.35-4.14h67.26c11.54,0,17.16,3.51,19.58,8.88,1.85,4.1,1.71,9.18-.43,15.1-2.04,5.62-5.55,10.34-9.88,14.21-6.6,5.9-14.68,9.47-26.52,9.47h-71.11ZM74.4,311.91c-7.49,20.65-14.98,41.3-22.47,61.95,15.15,5.7,30.31,11.41,45.46,17.11,7.78-21.88,15.56-43.77,23.34-65.65,4.93-11.51,16.59-17.94,31.26-23.25,15.3-4.9,30.6-9.79,45.89-14.69,28.03-9.6,42.2-17.8,51.77-43.71,11.25-30.66,22.58-61.3,33.88-91.94h0s5.09-13.78,5.09-13.78l.12-.33c13.9-37.76-3.01-73.21-39.39-88.85L158.51,15.27c-39.13-15.27-78.67.86-94.29,39.5-14.9,42.15-24.64,69.72-39.54,111.87-4.54,12.18-3.29,23.95.85,35.54h0s-17.21,86.28-17.21,86.28l25.08-69.28,10.62-29.34,29.17-80.58c3-8.29,8.94-12.43,17.52-12.43h110.48c28.41,0,43.77,8.29,52.26,21.61,8.88,13.91,10.2,33.15,2.91,53.28-6.43,17.76-19.01,34.68-34.82,47.95-19.47,16.33-43.79,26.94-74.57,26.94h-69.92l-10,27.62c7.5,11.83,11.44,25.13,7.35,37.7Z" style="fill:none;"/></clipPath><linearGradient id="linear-gradient-3" x1="170.81" y1="390.25" x2="140.92" y2="10.46" gradientUnits="userSpaceOnUse"><stop offset="0" stop-color="#5fa800"/><stop offset="1" stop-color="#c9e800"/></linearGradient><clipPath id="clippath-3"><path d="M102.62,192.01h63.33c8.89,0,16.22-2.13,22.88-8.09,3.71-3.31,6.68-7.29,8.38-12,1.21-3.35,2.12-7.6.59-11-2.32-5.16-9.76-5.67-14.6-5.67h-67.24c-.1.17-.2.42-.24.55l-13.1,36.2ZM58.9,370.65c11.74,4.42,23.48,8.84,35.22,13.26,7.16-20.14,14.32-40.28,21.48-60.42.04-.11.08-.21.13-.32,6.11-14.25,20.63-21.24,34.41-26.23.07-.03.13-.04.19-.07,15.3-4.9,30.6-9.8,45.84-14.68,10.45-3.58,22.36-7.92,31.16-14.84,8.56-6.74,13.48-15.45,17.2-25.57,10.91-29.67,21.86-59.32,32.8-88.98h0s6.3-17.07,6.3-17.07c12.93-35.03-2.8-67.42-35.74-81.7l-36.78-13.56-3.1-1.13h0s-51.38-18.96-51.38-18.96c-.03-.01-.06-.02-.1-.04-16.73-6.53-35.12-7.48-51.88-.51-16.61,6.91-28.61,20.34-35.32,36.86-13.17,37.26-26.19,74.56-39.5,111.77-3.86,10.78-2.95,21.25.85,31.87.35.97.41,1.89.21,2.9l-3.05,15.3,40.24-111.15c3.74-10.33,11.64-16.03,22.65-16.03h110.48c21.77,0,44.36,4.53,56.86,24.13,11.09,17.38,10.24,39.28,3.44,58.07-7.06,19.49-20.66,37.03-36.45,50.27-22.53,18.9-48.67,28.21-78.08,28.21h-66.1l-7.81,21.56c7.1,12.09,11,26.23,6.51,39.99-.02.06-.04.11-.06.17-6.88,18.96-13.76,37.92-20.64,56.88Z" style="fill:none;"/></clipPath><linearGradient id="linear-gradient-4" x1="214.55" y1="26.09" x2="107.75" y2="371.41" xlink:href="#linear-gradient-3"/><clipPath id="clippath-4"><path d="M447.2,149.86c.17.31.33.64.48.97,1.94,4.33,1.76,9.45.17,13.85-1.65,4.55-4.99,8.82-8.61,12-5.94,5.23-12.74,7.58-20.66,7.58h-71.11c-.48,0-.94-.06-1.38-.16.1.88.42,1.73.97,2.52,1.05,1.5,2.63,2.32,4.47,2.32h71.11c7.92,0,14.72-2.35,20.66-7.58,3.62-3.19,6.96-7.45,8.61-12,1.59-4.41,1.77-9.52-.17-13.85-1.09-2.44-2.66-4.28-4.54-5.65M423.35,217.45l.11.19c2.62,4.78,2.65,10.37.82,15.43-1.93,5.34-5.52,9.93-9.83,13.56-6.13,5.16-13.42,7.2-21.34,7.2h-66.67c-1.57,0-2.94-.27-4.08-.77.86,3.23,3.67,5.44,8.14,5.44h66.67c7.92,0,15.22-2.04,21.34-7.2,4.32-3.63,7.9-8.23,9.83-13.56,1.83-5.06,1.8-10.64-.82-15.43-1.13-2.07-2.54-3.65-4.16-4.86ZM468.07,206.33c-.91-1.58-2.07-3.02-3.52-4.24.29,1.42,1.12,2.63,2.4,3.45.39.25.76.51,1.12.79ZM336.9,102.28c-6.54,0-10.46,2.68-12.69,8.83l-63.33,174.93c-.28.78-1.23,3.81-.78,4.62.59.66,3.58.79,4.36.79h.23c.1-.32.19-.58.24-.74l63.33-174.93c2.23-6.16,6.16-8.83,12.69-8.83h120.83c11.3,0,23.91,1.97,32.31,9.66-7.93-11.6-23.06-14.33-36.37-14.33h-120.83Z" style="clip-rule:evenodd; fill:none;"/></clipPath><linearGradient id="linear-gradient-5" x1="405.74" y1="302.6" x2="352.92" y2="109.1" gradientUnits="userSpaceOnUse"><stop offset="0" stop-color="#fda200"/><stop offset="1" stop-color="#ea6f07"/></linearGradient><clipPath id="clippath-5"><path d="M144.39,159.93h-24.36c-.1.17-.2.42-.24.55l-11.41,31.52h49.21c-4.61-10.39-9.02-21.09-13.19-32.07M122.6,91.37c-5.94-23.28-10.22-45.87-12.84-67.28-.35.14-.7.28-1.05.43-16.61,6.9-28.61,20.34-35.32,36.86-13.17,37.26-26.19,74.57-39.5,111.77-3.51,9.81-3.07,19.35-.11,28.99l34.3-94.74c3.74-10.33,11.64-16.03,22.65-16.03h31.88ZM151.04,256.72h-66.1l-7.81,21.56c7.1,12.09,11,26.23,6.51,39.99-.02.06-.04.11-.06.17l-19.63,54.11c10.05,3.78,20.1,7.57,30.15,11.35,7.16-20.14,14.32-40.28,21.48-60.42.04-.11.08-.21.13-.32,6.11-14.25,20.63-21.24,34.41-26.23.07-.03.13-.04.19-.07,15.3-4.9,30.6-9.8,45.84-14.68,3-1.03,6.12-2.12,9.25-3.31-5.95-8.72-11.8-17.94-17.49-27.6-11.65,3.63-23.96,5.43-36.9,5.43Z" style="fill:none;"/></clipPath><linearGradient id="linear-gradient-6" x1="217.32" y1="258.38" x2="140" y2="216.09" xlink:href="#linear-gradient-3"/><clipPath id="clippath-6"><path d="M328.27,115.79l-63.33,174.93c-.06.16-.15.42-.24.74h123.56c9.51,0,18.44-1.3,26.85-4.02-5.88-9.19-11.62-18.85-17.19-28.94-.25,0-.5,0-.76,0h-66.67c-4.48,0-7.28-2.21-8.14-5.44-3.99-1.72-5.35-6.1-3.58-10.99l10.61-29.3c.8-2.2,2.79-3.6,5.13-3.6h39.15c-2.89-6.62-5.71-13.37-8.43-20.23h-13.7c-1.83,0-3.41-.82-4.47-2.32-.55-.78-.87-1.64-.97-2.52-1.24-.31-2.31-1.05-3.09-2.16-1.05-1.5-1.29-3.26-.66-4.99l9.27-25.62c-4.9-14.96-9.14-29.76-12.72-44.28-5.32.53-8.64,3.26-10.63,8.74" style="clip-rule:evenodd; fill:none;"/></clipPath><linearGradient id="linear-gradient-7" x1="415.04" y1="203.31" x2="264.74" y2="195.2" xlink:href="#linear-gradient"/><clipPath id="clippath-7"><path d="M394.23,319.3c.95,8.04,3.38,14.54,6.72,20.68,2.39,4.39,4.52,6.61,7.22,9.9,2.07,2.52,6.21,5.83,8.98,7.84,10.02,7.25,24.27,10.85,37.02,9.36,7.73-.9,14.84-3.27,20.7-6.74,3.02-1.79,5.67-3.46,8.06-5.63,1.19-1.08,2.47-2.13,3.59-3.23,5.61-5.54,10.34-13.15,12.87-20.63,6.82-20.15,1.56-41.31-12.97-56.07-11-11.19-27.76-17.29-44.3-15.48-15.38,1.69-27.91,9.26-37.07,20.98-8.31,10.64-12.45,25.16-10.82,39.03M451.4,263.64c1.95-1.32,5.7-.78,8.11-.27,1.27.27,2.41.58,3.55,1.1,1.51.68,2.31.99,2.32,2.18-1.65,1.53-5.73.84-8.03.37-1.25-.25-2.4-.57-3.58-1.07-1.07-.45-2.54-.9-2.38-2.32ZM435.09,266.16c3.06-.43,8.48.35,6.05,3.88-2.03,2.95-9.28,5.16-13.02,3.58-4.18-1.78.37-6.53,6.97-7.46ZM470.47,276.07c3.23-1.35,6.86,2.09,7.97,3.66.79,1.11,1.6,2.78,1.66,4.49.07,1.87-.8,3.27-2.18,3.81-3.85,1.51-9.56-3.45-9.72-8.17-.07-2.19.74-3.14,2.27-3.79ZM413.73,279.75c2.17-.64,3.2.79,3.12,2.9-.15,3.99-4.31,9.55-7.62,10.4-4.02,1.03-3.64-4.01-1.69-7.45.71-1.26,1.49-2.45,2.52-3.46.85-.84,2.07-1.92,3.68-2.4ZM446.41,283.64c4.05-.87,7.47,1.43,8.3,4.56,1.03,3.89-2.08,6.86-5.29,7.46-8.91,1.69-11.9-10.1-3.01-12.02ZM493.66,294.17c2.39-1.21,5.38,12.68,3.03,13.84-2.48,1.22-5.6-12.54-3.03-13.84ZM418.63,298.08c4.4-.95,7.7,2.55,8.3,6.16.73,4.35-2.02,8.19-5.56,8.91-4.41.91-7.75-2.56-8.34-6.31-.69-4.36,2.07-8,5.6-8.77ZM398.82,302.27c2.26-1.36,2.92,4.34,2.99,6.28.08,2.27-.38,6.45-1.75,7.36-3.14,2.1-4.15-11.9-1.24-13.64ZM482.6,299.97c3.74-.8,6.23,3.12,6.62,6.56.44,3.83-1.47,7.91-4.47,8.59-3.83.87-6.35-3.07-6.74-6.55-.44-3.94,1.42-7.92,4.59-8.6ZM460.65,310.94c4.44-.71,8.07,2.46,8.64,6.18.67,4.45-2.53,7.95-6.24,8.51-10.05,1.5-12.22-13.12-2.4-14.69ZM433.38,322.66c4.26-.83,7.89,2.08,8.61,5.52.93,4.42-2.23,7.89-5.82,8.56-9.67,1.81-12.6-12.16-2.79-14.08ZM486.26,327.18c3.49-1.04,3.17,3.95,1.49,7.32-1.07,2.16-3.29,5.3-5.85,5.98-5.75,1.53-2.2-11.36,4.36-13.3ZM411.43,331.9c2.69-.76,6.24,3.17,7.18,4.56,1.45,2.13,3.94,7.4.87,8.33-1.73.52-3.53-.88-4.45-1.52-1.2-.83-1.98-1.75-2.93-3.08-1.18-1.67-4.17-7.29-.67-8.28ZM448.4,344.74c3.56-.67,8.01.37,9.43,2.42,2.29,3.3-2.42,5.5-5.27,6-10.05,1.73-14.4-6.49-4.16-8.42ZM462.4,360.04c.1-2.28,9.08-6.65,12.38-5.5.16,1.23-.89,1.95-2.05,2.67-.94.58-1.94,1.14-2.98,1.61-1.43.64-5.92,2.54-7.36,1.22ZM425.24,357.42c2.87-1.61,13.62,1.5,13.64,4.61-2.01,1.2-6.02.08-8.06-.59-1.69-.55-5.68-1.97-5.58-4.03Z" style="fill:none;"/></clipPath><linearGradient id="linear-gradient-8" x1="454.3" y1="367.07" x2="444.52" y2="259.06" gradientUnits="userSpaceOnUse"><stop offset="0" stop-color="#ffa600"/><stop offset="1" stop-color="#fff200"/></linearGradient><clipPath id="clippath-8"><path d="M447.73,341.19c4.23-.8,10.47.17,13.07,3.91,2.12,3.06,1.42,6.59-1.38,8.9-1.69,1.39-4.09,2.35-6.24,2.72-15.15,2.61-20.15-12.76-5.45-15.53M410.45,328.43c4.27-1.21,8.89,2.69,11.15,5.99,1.14,1.67,2.17,3.83,2.66,5.79.83,3.37-.06,6.93-3.72,8.04-2.88.87-5.27-.42-7.56-2.02-1.59-1.11-2.69-2.38-3.81-3.95-1.12-1.57-2.15-3.7-2.64-5.57-.93-3.53.06-7.19,3.93-8.28ZM485.24,323.72c3.88-1.15,6.94,1.25,7.31,5.13.22,2.38-.5,5.13-1.56,7.26-1.62,3.25-4.51,6.89-8.15,7.86-3.02.8-5.9-.42-6.99-3.41-.74-2.04-.45-4.43.17-6.47,1.33-4.39,4.66-9.02,9.22-10.37ZM432.69,319.12c5.76-1.13,11.62,2.52,12.84,8.32,1.26,6.02-2.69,11.73-8.69,12.85-6.09,1.14-11.65-2.34-12.9-8.47-1.26-6.17,2.58-11.5,8.75-12.7ZM460.08,307.38c6.05-.97,11.86,3.12,12.78,9.2.91,6.06-3.22,11.72-9.28,12.62-6.34.95-11.77-2.92-12.75-9.21-.97-6.23,2.96-11.61,9.25-12.62ZM417.86,294.55c6.16-1.33,11.63,3.14,12.63,9.1.97,5.79-2.5,11.84-8.4,13.05-6.23,1.28-11.68-3.25-12.64-9.28-.91-5.78,2.55-11.6,8.41-12.86ZM445.65,280.11c5.39-1.16,11.1,1.67,12.55,7.16,1.51,5.7-2.55,10.88-8.1,11.94-5.49,1.04-10.94-1.71-12.36-7.32-1.45-5.75,2.34-10.58,7.91-11.78ZM469.07,272.74c4.56-1.91,9.7,1.22,12.31,4.9,1.31,1.85,2.24,4.17,2.32,6.45.11,3.17-1.46,6.12-4.48,7.3-6.71,2.63-14.43-4.78-14.65-11.41-.11-3.42,1.33-5.91,4.49-7.24ZM397.89,319.45c.87,6.79,2.95,12.77,6.23,18.8,2,3.67,4.22,6.16,6.83,9.33,2.03,2.47,5.7,5.32,8.31,7.21.8.58,1.63,1.13,2.48,1.66.25-.92.84-1.68,1.71-2.17,2.92-1.64,7.7-.73,10.75.24,3.38,1.07,8.25,3.33,8.27,7.5,0,.5-.09.97-.26,1.4,3.9.47,7.81.5,11.53.07,1.99-.23,3.99-.58,5.96-1.03-.65-.71-.96-1.59-.92-2.58.16-3.47,4.3-5.86,7.08-7.15,2.83-1.31,7.02-2.67,10.1-1.6,1.24.43,2.1,1.42,2.35,2.68.76-.56,1.49-1.15,2.19-1.78,1.15-1.04,2.37-2.03,3.47-3.12,5.23-5.17,9.63-12.26,11.98-19.22,2.09-6.17,2.97-12.48,2.71-18.66-.13.08-.26.15-.4.22-2.21,1.09-4.2.18-5.59-1.42-.66,4.01-3.06,7.88-7.16,8.81-6.15,1.4-10.52-4.12-11.13-9.68-.57-5.15,1.88-11.34,7.42-12.53,2.9-.62,5.39.32,7.27,2.07-.19-3.04.32-6.24,2.91-7.56.45-.23.89-.37,1.32-.44-2.4-4.76-5.58-9.22-9.49-13.2-4.25-4.32-9.34-7.76-14.88-10.22-.09.86-.48,1.61-1.13,2.22-2.86,2.65-7.69,1.97-11.2,1.26-1.47-.3-2.87-.7-4.25-1.27-.85-.36-1.6-.64-2.37-1.2-1.58-1.14-2.43-2.9-2.21-4.87.03-.22.07-.43.13-.63-1.81,0-3.62.1-5.42.29-.51.06-1.02.12-1.52.19.18.06.36.13.53.2,3.84,1.56,4.95,5.39,2.58,8.82-3.16,4.59-12.32,7.01-17.4,4.85-3.73-1.58-4.68-5.08-3.02-8.14-3.56,1.98-6.86,4.4-9.9,7.25,4.04-.58,6.82,2.59,6.67,6.74-.19,5.25-5.13,12.42-10.33,13.76-3.91,1.01-7.16-1.16-7.58-5.17,0-.06-.01-.12-.02-.19-1.12,2.34-2.06,4.77-2.82,7.26,1.1.06,2.17.52,3.04,1.37.91.9,1.46,2.08,1.83,3.29.5,1.64.77,3.6.83,5.3.11,3.25-.45,8.55-3.35,10.49-1.42.95-2.89,1.05-4.17.54Z" style="fill:none;"/></clipPath><linearGradient id="linear-gradient-9" x1="495.43" y1="295.24" x2="401.13" y2="331.38" xlink:href="#linear-gradient-8"/><clipPath id="clippath-9"><path d="M430.49,303.64c.97,5.79-2.5,11.84-8.4,13.05-6.23,1.28-11.68-3.25-12.64-9.28-.91-5.78,2.55-11.6,8.41-12.86,6.16-1.33,11.63,3.14,12.63,9.1M447.73,341.19c4.23-.8,10.47.17,13.07,3.91,2.12,3.06,1.42,6.59-1.38,8.9-1.69,1.39-4.09,2.35-6.24,2.72-15.15,2.61-20.15-12.76-5.45-15.53ZM410.45,328.43c4.27-1.21,8.89,2.69,11.15,5.99,1.14,1.67,2.17,3.83,2.66,5.79.83,3.37-.06,6.93-3.72,8.04-2.88.87-5.27-.42-7.56-2.02-1.59-1.11-2.69-2.38-3.81-3.95-1.12-1.57-2.15-3.7-2.64-5.57-.93-3.53.06-7.19,3.93-8.28ZM432.69,319.12c5.76-1.13,11.62,2.52,12.84,8.32,1.26,6.02-2.69,11.73-8.69,12.85-6.09,1.14-11.65-2.34-12.9-8.47-1.26-6.17,2.58-11.5,8.75-12.7ZM450.75,316.81c-12.87-8.95-23.56-19.07-31.44-29.42-1.79,4.15-5.42,8.19-9.19,9.16-3.91,1.01-7.16-1.16-7.58-5.17,0-.06-.01-.12-.02-.19-1.12,2.34-2.06,4.77-2.82,7.26,1.1.06,2.17.52,3.04,1.37.91.9,1.46,2.08,1.83,3.29.5,1.64.77,3.6.83,5.3.11,3.25-.45,8.55-3.35,10.49-1.42.95-2.89,1.05-4.17.54.87,6.79,2.95,12.77,6.23,18.8,2,3.67,4.22,6.16,6.83,9.33,2.03,2.47,5.7,5.32,8.31,7.21.8.58,1.63,1.13,2.48,1.66.25-.92.84-1.68,1.71-2.17,2.92-1.64,7.7-.73,10.75.24,3.38,1.07,8.25,3.33,8.27,7.5,0,.5-.09.97-.26,1.4,3.9.47,7.81.5,11.53.07,1.99-.23,3.99-.58,5.96-1.03-.65-.71-.96-1.59-.92-2.58.16-3.47,4.3-5.86,7.08-7.15,2.83-1.31,7.02-2.67,10.1-1.6,1.24.43,2.1,1.42,2.35,2.68.76-.56,1.49-1.15,2.19-1.78.61-.55,1.24-1.09,1.86-1.64.55-.48,1.09-.97,1.61-1.49,1.55-1.53,3.02-3.23,4.39-5.04,1.41-1.87,2.71-3.86,3.87-5.91-.63-.22-1.26-.44-1.9-.67-.62,1.07-1.36,2.14-2.22,3.1-1.47,1.67-3.27,3.04-5.3,3.58-1.19.32-2.36.32-3.4.02-1.61-.46-2.92-1.62-3.59-3.43-.74-2.04-.45-4.43.17-6.47.23-.77.53-1.55.88-2.32-2.92-1.35-5.84-2.8-8.75-4.35-1.33.9-2.87,1.53-4.57,1.78-6.34.95-11.77-2.92-12.75-9.21-.17-1.09-.19-2.16-.07-3.18Z" style="fill:none;"/></clipPath><linearGradient id="linear-gradient-10" x1="421.68" y1="291.31" x2="468.05" y2="359.4" xlink:href="#linear-gradient-8"/></defs><g id="Layer_1"><rect x="789.99" y="660.42" width="196" height="251" style="fill:#fff;"/><path d="M985.49,660.92v250h-195v-250h195M986.49,659.92h-197v252h197v-252h0Z"/></g><g id="Layer_2"><g id="Layer_1-2"><path d="M357.84,171.54h60.74c4.81,0,8.63-1.22,12.24-4.4,1.96-1.73,4.16-4.31,5.06-6.79.44-1.22.74-3.09.18-4.32-.7-1.55-4.73-1.62-6.02-1.62h-66.01l-6.2,17.13ZM339.61,221.9l-6.95,19.2h60.44c4.87,0,9.36-1.02,13.15-4.21,2.58-2.17,4.9-4.96,6.06-8.16.56-1.55.81-3.47-.02-4.99-1.07-1.95-5.18-1.84-6.98-1.84h-65.71ZM477.59,197.56c8.84,12.4,6.58,30.75,1.53,44.71-5.72,15.8-16.72,29.81-29.63,40.44-17.82,14.66-38.19,21.49-61.23,21.49h-123.79c-14.14,0-20.32-9.29-15.55-22.48l63.33-174.93c4.06-11.21,12.75-17.23,24.66-17.23h120.83c18.95,0,38.59,5.1,48.59,22.61,8.18,14.31,6.57,31.08,1.15,46.04-5.71,15.77-16.22,29.7-29.89,39.35Z" style="fill:#002e1f; fill-rule:evenodd;"/><g style="clip-path:url(#clippath);"><rect x="252.65" y="96.82" width="254.1" height="200.09" style="fill:url(#linear-gradient);"/></g><g style="clip-path:url(#clippath-1);"><rect x="259.65" y="102.28" width="241.83" height="189.18" style="fill:url(#linear-gradient-2);"/></g><path d="M84.63,204.63l19.23-53.11c1.95-5.39,6.29-8.87,12.09-8.87h67.26c10.5,0,21.42,2.69,26.11,13.1,2.97,6.59,2.17,13.86-.23,20.48-2.42,6.68-6.57,12.4-11.84,17.11-9,8.04-19.28,11.29-31.29,11.29h-81.32ZM67.63,309.58c3.49-10.85-.78-22.33-6.62-31.53l-1.88-2.97,12.91-35.65h74.95c26.44,0,49.71-8.27,69.97-25.26,14.07-11.8,26.4-27.52,32.69-44.9,5.43-14.99,6.7-33.02-2.22-46.98-9.91-15.53-29.22-18.3-46.22-18.3h-110.48c-5.68,0-8.86,2.39-10.79,7.71L12.8,297.15l-12.8-3.57,18.13-90.9c-4.19-12.74-4.8-25.57-.19-38.45,13.32-37.23,26.35-74.56,39.53-111.84l.05-.15.06-.15c7.97-19.71,22.44-35.67,42.22-43.9C119.57-.03,141.29.87,161.06,8.57l90.96,33.54.17.07c18.39,7.91,33.91,21.34,42.26,39.76,8.45,18.65,8.04,39.13,1.02,58.15l-5.21,14.11c-11.31,30.64-22.6,61.28-33.88,91.93-10.77,29.27-27.89,38.32-56.17,48.01l-.07.02-.07.02c-15.26,4.88-30.51,9.77-45.77,14.65-9.84,3.57-22.39,8.86-26.9,19.1-7.75,21.81-15.51,43.61-23.26,65.42l-2.44,6.88-6.83-2.57c-15.15-5.7-30.31-11.41-45.46-17.11l-6.63-2.49,2.41-6.66c7.48-20.61,14.96-41.22,22.43-61.83Z" style="fill:#002e1f; fill-rule:evenodd;"/><g style="clip-path:url(#clippath-2);"><rect x="8.33" width="294.31" height="390.97" style="fill:url(#linear-gradient-3);"/></g><g style="clip-path:url(#clippath-3);"><rect x="25.97" y="12.88" width="270.58" height="371.03" style="fill:url(#linear-gradient-4);"/></g><g style="clip-path:url(#clippath-4);"><rect x="259.65" y="102.28" width="234.45" height="189.18" style="fill:url(#linear-gradient-5);"/></g><path d="M102.62,192.01h5.75l11.41-31.52c.05-.13.14-.37.24-.55h67.24c3.24,0,7.64.23,10.9,1.92-.1-.32-.22-.63-.35-.93-2.32-5.16-9.76-5.67-14.6-5.67h-67.24c-.1.17-.2.42-.24.55l-13.1,36.2ZM247.88,54.04l-36.79-13.57-3.08-1.12h0s-51.38-18.96-51.38-18.96c-.03-.01-.06-.02-.1-.04-16.73-6.53-35.12-7.48-51.88-.51-16.61,6.91-28.61,20.34-35.32,36.86-13.17,37.26-26.19,74.56-39.5,111.77-3.86,10.78-2.95,21.25.85,31.87.35.97.41,1.89.21,2.9l-3.05,15.3,5.94-16.41c-2.96-9.64-3.4-19.18.11-28.99,13.31-37.21,26.33-74.51,39.5-111.77,6.71-16.52,18.71-29.96,35.32-36.86,16.76-6.97,35.15-6.02,51.88.51.03.01.06.02.1.04l102.51,37.8c-4.57-3.42-9.69-6.39-15.32-8.82ZM58.9,370.65l5.06,1.91,19.63-54.11c.02-.06.04-.11.06-.17,4.49-13.76.59-27.9-6.51-39.99l7.81-21.56h66.1c29.4,0,55.55-9.31,78.08-28.21,15.79-13.24,29.39-30.78,36.44-50.27,6.8-18.78,7.65-40.69-3.44-58.07-1.87-2.92-3.96-5.51-6.24-7.8.75,1,1.48,2.04,2.18,3.13,11.09,17.38,10.24,39.28,3.44,58.07-7.06,19.49-20.66,37.03-36.45,50.27-22.53,18.9-48.67,28.21-78.08,28.21h-66.1l-7.81,21.56c7.1,12.09,11,26.23,6.51,39.99-.02.06-.04.11-.06.17-6.88,18.96-13.76,37.92-20.64,56.88Z" style="fill:#679e0f; fill-rule:evenodd;"/><g style="clip-path:url(#clippath-5);"><rect x="30.38" y="24.09" width="175.04" height="359.82" style="fill:url(#linear-gradient-6);"/></g><g style="clip-path:url(#clippath-6);"><rect x="264.7" y="107.05" width="150.42" height="184.41" style="fill:url(#linear-gradient-7);"/></g><path d="M386.81,320.18c-1.83-15.6,2.69-32.13,12.36-44.52,10.56-13.51,25.01-21.92,42.14-23.8,18.32-2.01,37.48,4.49,50.45,17.67,16.67,16.94,22.35,41.13,14.71,63.69-2.91,8.61-8.24,17.17-14.7,23.56-1.22,1.2-2.52,2.28-3.79,3.42-2.85,2.58-6,4.58-9.29,6.53-7.18,4.25-15.39,6.78-23.65,7.74-14.39,1.68-30.54-2.24-42.29-10.74-3.48-2.52-7.68-5.88-10.39-9.18-3.08-3.74-5.61-6.69-7.98-11.04-4.05-7.43-6.58-14.94-7.57-23.36" style="fill:#002e1f; fill-rule:evenodd;"/><g style="clip-path:url(#clippath-7);"><rect x="392.6" y="257.48" width="113.61" height="111.08" style="fill:url(#linear-gradient-8);"/></g><g style="clip-path:url(#clippath-8);"><rect x="397.89" y="262.59" width="101.05" height="101.33" style="fill:url(#linear-gradient-9);"/></g><g style="clip-path:url(#clippath-9);"><rect x="397.89" y="287.39" width="94.36" height="76.53" style="fill:url(#linear-gradient-10);"/></g><polygon points="443.71 251.63 288.39 251.63 419.46 259.96 433.2 257.92 443.71 251.63" style="fill:#002e1f; fill-rule:evenodd;"/><polygon points="424.78 262.99 322.48 262.99 407.99 270.31 416.27 268.09 424.78 262.99" style="fill:#002e1f; fill-rule:evenodd;"/><polygon points="409.72 274.46 349.74 274.46 402.61 279.16 404.73 277.45 409.72 274.46" style="fill:#002e1f; fill-rule:evenodd;"/></g></g></svg>